<svg xmlns="http://www.w3.org/2000/svg" version="1.1" xmlns:xlink="http://www.w3.org/1999/xlink" xmlns:svgjs="http://svgjs.com/svgjs" width="146.000000pt" height="145.000000pt"><svg version="1.0" xmlns="http://www.w3.org/2000/svg" width="146.000000pt" height="145.000000pt" viewBox="0 0 146.000000 145.000000" preserveAspectRatio="xMidYMid meet">

<g transform="translate(0.000000,145.000000) scale(0.100000,-0.100000)" fill="#000000" stroke="none">
<path d="M605 1436 c-127 -25 -240 -79 -327 -155 -32 -29 -56 -41 -80 -42 -30
-2 -31 -2 -5 -6 l27 -4 -32 -39 c-49 -57 -104 -154 -125 -221 -10 -32 -21 -59
-24 -59 -8 0 -13 -91 -12 -205 2 -145 62 -300 168 -428 30 -36 51 -68 48 -71
-4 -3 1 -6 10 -6 9 0 37 -15 62 -34 151 -115 371 -162 570 -121 l75 16 43 -26
c24 -14 52 -25 63 -24 14 0 11 3 -8 9 -14 4 -40 16 -56 26 l-30 17 73 37 c40
20 92 52 115 70 34 27 44 30 51 19 5 -8 9 -18 9 -23 0 -5 3 -7 6 -4 3 4 1 15
-5 26 -9 17 -4 27 30 63 87 95 144 201 174 326 13 56 16 99 13 190 -8 191 -64
325 -195 463 -48 52 -63 74 -63 97 0 33 -40 78 -62 70 -9 -4 -8 -6 3 -6 24 -1
49 -34 49 -64 l0 -26 -60 37 c-63 40 -70 48 -42 55 9 2 -3 4 -28 4 -25 0 -76
10 -115 22 -90 28 -227 35 -320 17z m260 -31 c41 -9 88 -21 104 -28 l30 -13
-19 -29 c-11 -17 -30 -32 -42 -35 -29 -7 -47 -53 -28 -74 34 -42 101 9 72 55
-13 20 -10 31 16 61 13 16 17 16 62 -7 70 -35 165 -118 217 -188 93 -125 135
-255 135 -412 -1 -120 -18 -191 -74 -305 -53 -109 -176 -236 -283 -292 -112
-58 -109 -58 -151 8 -23 36 -38 73 -40 97 -5 67 -42 88 -80 44 -20 -23 -20
-23 2 -46 15 -16 29 -22 43 -18 12 3 21 2 21 -2 0 -5 18 -36 41 -71 22 -34 39
-63 37 -65 -12 -11 -124 -25 -197 -25 -306 0 -579 211 -655 505 -19 76 -31
225 -18 225 17 0 23 -30 10 -53 -10 -19 -9 -20 4 -9 14 11 20 6 43 -35 42 -72
129 -176 192 -227 43 -36 65 -64 93 -122 23 -47 35 -85 32 -100 -6 -30 13 -54
44 -54 30 0 49 32 34 60 -10 19 -16 22 -50 24 -15 1 -69 89 -70 113 0 7 31 -4
73 -26 39 -22 83 -42 97 -45 14 -4 -8 9 -49 29 -96 45 -141 80 -142 108 0 21
-1 21 -9 2 -7 -18 -18 -10 -102 75 -51 53 -110 125 -130 160 l-38 64 36 38
c20 20 63 51 95 68 54 29 60 30 82 16 21 -14 25 -14 45 0 12 8 22 23 22 33 0
45 -65 54 -86 13 -6 -12 -34 -34 -62 -49 -28 -14 -70 -44 -93 -66 -32 -31 -43
-37 -50 -26 -20 30 -21 63 -4 127 52 192 182 350 355 435 150 73 286 93 435
62z"></path>
<path d="M550 1236 c-33 -41 22 -94 60 -56 10 10 34 20 52 23 l33 4 -32 1
c-21 1 -36 9 -43 22 -13 23 -52 27 -70 6z"></path>
<path d="M720 1190 c34 -11 60 -11 35 0 -11 5 -29 8 -40 8 -16 0 -15 -2 5 -8z"></path>
<path d="M858 1140 c51 -25 106 -63 144 -99 l62 -59 -69 -45 c-39 -24 -97 -56
-130 -70 -75 -31 -175 -58 -175 -46 0 14 -37 29 -55 23 -25 -10 -37 -41 -25
-64 15 -28 56 -26 75 4 10 15 30 27 53 31 67 12 187 64 257 111 l69 47 28 -34
c15 -18 41 -65 58 -103 16 -39 30 -66 30 -59 0 19 -39 105 -72 156 l-31 48 34
35 c22 22 39 32 50 29 28 -9 61 29 50 57 -18 49 -86 28 -79 -24 4 -23 -2 -35
-29 -59 l-35 -30 -62 58 c-59 55 -152 113 -206 128 -14 3 12 -12 58 -35z"></path>
<path d="M1182 740 c0 -14 2 -19 5 -12 2 6 2 18 0 25 -3 6 -5 1 -5 -13z"></path>
<path d="M1192 687 c-1 -16 -11 -40 -21 -53 -11 -14 -17 -33 -14 -44 7 -25 48
-37 68 -20 21 18 19 57 -4 70 -12 6 -21 24 -24 43 -4 30 -4 30 -5 4z"></path>
<path d="M332 678 c-17 -17 -15 -53 3 -68 10 -8 16 -33 17 -74 l2 -61 3 59 c3
45 9 63 24 74 34 23 19 82 -21 82 -9 0 -21 -5 -28 -12z"></path>
<path d="M628 293 c7 -3 16 -2 19 1 4 3 -2 6 -13 5 -11 0 -14 -3 -6 -6z"></path>
<path d="M668 283 c7 -3 16 -2 19 1 4 3 -2 6 -13 5 -11 0 -14 -3 -6 -6z"></path>
<path d="M713 273 c9 -2 23 -2 30 0 6 3 -1 5 -18 5 -16 0 -22 -2 -12 -5z"></path>
<path d="M98 1205 c-36 -25 -79 -96 -77 -131 0 -10 6 1 14 25 16 50 56 97 100
117 17 7 23 13 15 14 -9 0 -32 -11 -52 -25z"></path>
<path d="M12 1015 c0 -16 2 -22 5 -12 2 9 2 23 0 30 -3 6 -5 -1 -5 -18z"></path>
<path d="M22 940 c0 -14 2 -19 5 -12 2 6 2 18 0 25 -3 6 -5 1 -5 -13z"></path>
<path d="M12 600 c0 -14 2 -19 5 -12 2 6 2 18 0 25 -3 6 -5 1 -5 -13z"></path>
<path d="M3 525 c0 -27 2 -38 4 -22 2 15 2 37 0 50 -2 12 -4 0 -4 -28z"></path>
<path d="M11 455 c-1 -28 40 -113 74 -153 26 -32 119 -92 140 -92 6 0 -14 14
-44 30 -30 17 -63 38 -74 48 -26 24 -67 95 -82 145 -8 23 -14 33 -14 22z"></path>
<path d="M1232 125 c0 -16 2 -22 5 -12 2 9 2 23 0 30 -3 6 -5 -1 -5 -18z"></path>
<path d="M1206 63 c-10 -14 -33 -31 -50 -39 -17 -7 -26 -13 -19 -14 23 0 63
23 79 47 21 33 14 37 -10 6z"></path>
</g>
</svg><style>@media (prefers-color-scheme: light) { :root { filter: none; } }
@media (prefers-color-scheme: dark) { :root { filter: contrast(0.8333333333333334) brightness(1.7); } }
</style></svg>