<?xml version="1.0" standalone="no"?>
<!DOCTYPE svg PUBLIC "-//W3C//DTD SVG 20010904//EN"
 "http://www.w3.org/TR/2001/REC-SVG-20010904/DTD/svg10.dtd">
<svg version="1.0" xmlns="http://www.w3.org/2000/svg"
 width="146.000000pt" height="146.000000pt" viewBox="0 0 146.000000 146.000000"
 preserveAspectRatio="xMidYMid meet">
<metadata>
Created by potrace 1.14, written by Peter Selinger 2001-2017
</metadata>
<g transform="translate(0.000000,146.000000) scale(0.100000,-0.100000)"
fill="#000000" stroke="none">
<path d="M569 1430 c-102 -25 -194 -70 -276 -134 -47 -36 -79 -53 -101 -54
-39 -3 -99 -31 -124 -59 -40 -44 -56 -101 -50 -186 7 -127 4 -345 -7 -383 -16
-56 -7 -173 17 -226 29 -66 86 -125 154 -159 31 -16 62 -29 68 -29 6 0 40 -20
74 -45 159 -113 377 -155 571 -110 65 15 66 15 103 -9 39 -26 112 -45 112 -29
0 5 -9 9 -21 10 -33 3 -86 23 -98 37 -9 11 -1 18 36 34 27 11 77 41 113 66 71
49 79 48 84 -17 5 -54 -43 -117 -89 -117 -8 0 -15 -4 -15 -9 0 -13 40 -1 71
20 46 32 60 99 34 161 -5 12 8 34 43 75 109 126 171 280 176 438 8 219 -69
407 -227 557 -22 20 -36 41 -33 47 4 5 0 26 -8 44 -18 45 -69 64 -121 47 -19
-6 -40 -8 -47 -4 -6 4 -46 17 -87 29 -103 29 -249 31 -352 5z m314 -30 c39
-10 97 -30 105 -36 9 -7 -34 -64 -48 -64 -22 0 -40 -20 -40 -45 0 -27 18 -45
45 -45 39 0 61 50 34 77 -13 13 16 63 37 63 49 0 211 -133 275 -226 193 -280
148 -663 -103 -888 -64 -57 -200 -136 -235 -136 -27 0 -96 116 -88 148 12 50
-42 83 -79 47 -20 -20 -47 -19 -141 6 -79 20 -199 74 -243 107 -39 30 -61 192
-27 192 12 0 35 36 35 55 0 11 -34 35 -48 35 -41 -1 -63 -47 -35 -75 11 -11
18 -36 20 -64 1 -25 4 -61 7 -79 l5 -33 -37 30 c-93 74 -222 241 -222 286 0
18 75 82 130 110 41 21 47 21 68 7 44 -29 94 21 64 64 -21 30 -82 18 -82 -16
0 -9 -23 -27 -52 -42 -29 -14 -74 -44 -99 -66 l-45 -40 -11 28 c-17 46 16 176
68 265 105 181 271 301 469 339 73 14 210 12 273 -4z m275 -37 c12 -17 17 -53
7 -53 -3 0 -18 8 -33 19 -15 10 -40 26 -57 36 -27 17 -28 19 -10 25 26 9 77
-6 93 -27z m-958 -152 c-5 -11 -15 -23 -20 -26 -25 -16 -120 -188 -120 -218 0
-7 -7 -22 -15 -33 -13 -18 -15 -16 -16 26 -1 25 -1 63 0 85 5 99 76 178 164
184 15 1 16 -2 7 -18z m-127 -441 c3 -10 -1 -24 -8 -30 -10 -9 -13 -7 -10 7 2
10 4 24 4 31 1 18 8 15 14 -8z m159 -235 c31 -33 74 -73 97 -90 22 -16 41 -34
41 -38 0 -5 15 -39 33 -76 22 -44 31 -74 26 -87 -16 -45 38 -77 72 -43 10 10
19 25 19 33 0 22 -29 46 -55 46 -19 0 -29 11 -50 56 -15 31 -25 58 -23 60 2 2
15 -4 29 -14 67 -47 245 -112 306 -112 19 0 37 -9 51 -25 12 -14 33 -25 47
-25 18 0 29 -9 41 -32 9 -18 27 -47 40 -65 13 -17 21 -34 17 -36 -27 -16 -145
-29 -227 -24 -239 13 -460 158 -565 370 -59 120 -85 243 -60 289 10 18 15 14
58 -53 26 -41 72 -101 103 -134z m-187 28 c17 -91 83 -215 156 -296 21 -23 36
-44 34 -45 -8 -9 -96 43 -131 77 -66 64 -94 154 -86 284 3 38 18 26 27 -20z"/>
<path d="M549 1239 c-20 -20 -17 -46 9 -66 22 -18 38 -16 60 8 18 19 24 20 82
9 80 -14 147 -41 217 -86 66 -42 133 -102 133 -119 0 -28 -228 -145 -313 -160
-29 -6 -42 -3 -57 10 -27 24 -68 13 -76 -22 -14 -54 64 -79 88 -29 7 16 24 25
64 34 62 13 198 75 264 121 l45 31 19 -23 c26 -32 72 -125 86 -177 23 -85 24
-110 1 -131 -38 -36 -21 -79 30 -79 45 0 61 49 26 77 -13 11 -23 32 -25 53 -6
58 -49 175 -87 235 l-36 56 31 33 c23 23 39 31 55 29 40 -8 74 50 43 74 -41
32 -82 15 -80 -34 1 -29 -35 -83 -55 -83 -6 0 -29 18 -52 40 -85 82 -217 149
-326 165 -29 4 -60 16 -73 28 -30 28 -49 30 -73 6z"/>
</g>
</svg>
